<svg xmlns="http://www.w3.org/2000/svg" version="1.1" xmlns:xlink="http://www.w3.org/1999/xlink" width="125" height="153"><svg width="125" height="153" viewBox="0 0 125 153" fill="none" xmlns="http://www.w3.org/2000/svg">
<rect y="18.8303" width="125" height="123.015" rx="10" fill="#C6C6FF"></rect>
<path d="M92.264 126L88.424 111.6H70.088L66.344 126H52.424L71.336 65.52H87.752L106.664 126H92.264ZM72.68 101.04H85.928L84.296 95.376C83.464 92.368 82.632 89.168 81.8 85.776C81.032 82.32 80.232 79.024 79.4 75.888H79.016C78.312 79.088 77.544 82.384 76.712 85.776C75.944 89.168 75.144 92.368 74.312 95.376L72.68 101.04Z" fill="white"></path>
<path d="M13.104 126V65.52H34.896C39.184 65.52 43.088 66.096 46.608 67.248C50.128 68.4 52.944 70.352 55.056 73.104C57.168 75.856 58.224 79.632 58.224 84.432C58.224 89.04 57.168 92.816 55.056 95.76C52.944 98.704 50.128 100.88 46.608 102.288C43.088 103.632 39.184 104.304 34.896 104.304H26.736V126H13.104ZM26.736 93.456H33.744C41.104 93.456 44.784 90.448 44.784 84.432C44.784 81.424 43.824 79.344 41.904 78.192C40.048 77.04 37.328 76.464 33.744 76.464H26.736V93.456ZM45.84 126L32.4 100.656L41.808 91.92L61.104 126H45.84Z" fill="white"></path>
</svg><style>@media (prefers-color-scheme: light) { :root { filter: none; } }
@media (prefers-color-scheme: dark) { :root { filter: none; } }
</style></svg>